<svg width="17" height="17" viewBox="0 0 17 17" fill="none" xmlns="http://www.w3.org/2000/svg">
<g id="vuesax/linear/eye-slash">
<g id="eye-slash">
<path id="Vector" d="M9.97619 6.8016L6.57943 10.1984C6.14309 9.76202 5.87457 9.16457 5.87457 8.49998C5.87457 7.17081 6.94865 6.09674 8.27781 6.09674C8.9424 6.09674 9.53985 6.36526 9.97619 6.8016Z" stroke="#141522" stroke-width="1.20833" stroke-linecap="round" stroke-linejoin="round"/>
<path id="Vector_2" d="M12.1847 4.31787C11.0099 3.43176 9.66732 2.94843 8.27774 2.94843C5.90806 2.94843 3.6995 4.34472 2.16223 6.76139C1.55806 7.70792 1.55806 9.29889 2.16223 10.2454C2.69256 11.0778 3.31015 11.7961 3.98144 12.3734" stroke="#141522" stroke-width="1.20833" stroke-linecap="round" stroke-linejoin="round"/>
<path id="Vector_3" d="M5.87457 13.5549C6.63985 13.8771 7.45212 14.0517 8.27781 14.0517C10.6475 14.0517 12.8561 12.6554 14.3933 10.2387C14.9975 9.29219 14.9975 7.70122 14.3933 6.75469C14.1718 6.40561 13.9301 6.07668 13.6817 5.76788" stroke="#141522" stroke-width="1.20833" stroke-linecap="round" stroke-linejoin="round"/>
<path id="Vector_4" d="M10.6343 8.96985C10.4597 9.91638 9.68774 10.6884 8.74121 10.8629" stroke="#141522" stroke-width="1.20833" stroke-linecap="round" stroke-linejoin="round"/>
<path id="Vector_5" d="M6.57971 10.1984L1.56512 15.213" stroke="#141522" stroke-width="1.20833" stroke-linecap="round" stroke-linejoin="round"/>
<path id="Vector_6" d="M14.9908 1.78711L9.97626 6.80169" stroke="#292D32" stroke-width="1.20833" stroke-linecap="round" stroke-linejoin="round"/>
</g>
</g>
</svg>
