<svg width="18" height="17" viewBox="0 0 18 17" fill="none" xmlns="http://www.w3.org/2000/svg">
<path d="M15.0413 4.73445C12.8059 4.51292 10.5571 4.3988 8.31495 4.3988C6.98579 4.3988 5.65662 4.46593 4.32745 4.60019L2.95801 4.73445" stroke="#FF461D" stroke-width="1.20833" stroke-linecap="round" stroke-linejoin="round"/>
<path d="M6.65039 4.05643L6.79808 3.17704C6.90548 2.5393 6.98604 2.06268 8.12053 2.06268H9.87933C11.0138 2.06268 11.1011 2.56616 11.2018 3.18375L11.3495 4.05643" stroke="#FF461D" stroke-width="1.20833" stroke-linecap="round" stroke-linejoin="round"/>
<path d="M13.5981 6.85571L13.1618 13.6157C13.0879 14.6696 13.0275 15.4886 11.1546 15.4886H6.84489C4.97197 15.4886 4.91155 14.6696 4.83771 13.6157L4.40137 6.85571" stroke="#FF461D" stroke-width="1.20833" stroke-linecap="round" stroke-linejoin="round"/>
<path d="M7.87891 11.7965H10.1143" stroke="#FF461D" stroke-width="1.20833" stroke-linecap="round" stroke-linejoin="round"/>
<path d="M7.32129 9.11133H10.6778" stroke="#FF461D" stroke-width="1.20833" stroke-linecap="round" stroke-linejoin="round"/>
</svg>
