<svg width="17" height="17" viewBox="0 0 17 17" fill="none" xmlns="http://www.w3.org/2000/svg">
<path d="M7.95284 13.9214H5.58988C5.17368 13.9214 4.80446 13.9079 4.47553 13.861C2.71002 13.6663 2.2334 12.8339 2.2334 10.5649V7.20841C2.2334 4.93943 2.71002 4.10702 4.47553 3.91235C4.80446 3.86535 5.17368 3.85193 5.58988 3.85193H7.91257" stroke="white" stroke-width="1.20833" stroke-linecap="round" stroke-linejoin="round"/>
<path d="M10.6387 3.85193H11.6322C12.0484 3.85193 12.4176 3.86535 12.7465 3.91235C14.5121 4.10702 14.9887 4.93943 14.9887 7.20841V10.5649C14.9887 12.8339 14.5121 13.6663 12.7465 13.861C12.4176 13.9079 12.0484 13.9214 11.6322 13.9214H10.6387" stroke="white" stroke-width="1.20833" stroke-linecap="round" stroke-linejoin="round"/>
<path d="M10.625 2.17371V15.5996" stroke="white" stroke-width="1.20833" stroke-linecap="round" stroke-linejoin="round"/>
<path d="M8.00286 8.88655H8.00889" stroke="white" stroke-width="1.61111" stroke-linecap="round" stroke-linejoin="round"/>
<path d="M5.31829 8.88655H5.32432" stroke="white" stroke-width="1.61111" stroke-linecap="round" stroke-linejoin="round"/>
</svg>
