<svg width="20" height="20" viewBox="0 0 20 20" fill="none" xmlns="http://www.w3.org/2000/svg">
<path opacity="0.4" d="M10.3339 18.3888C14.7828 18.3888 18.3894 14.7822 18.3894 10.3333C18.3894 5.8843 14.7828 2.27771 10.3339 2.27771C5.88492 2.27771 2.27832 5.8843 2.27832 10.3333C2.27832 14.7822 5.88492 18.3888 10.3339 18.3888Z" fill="#21B573"/>
<path d="M9.19047 13.2172C9.02936 13.2172 8.8763 13.1527 8.76352 13.04L6.4838 10.7602C6.25019 10.5266 6.25019 10.14 6.4838 9.90635C6.71741 9.67273 7.10408 9.67273 7.33769 9.90635L9.19047 11.7591L13.331 7.61857C13.5646 7.38496 13.9513 7.38496 14.1849 7.61857C14.4185 7.85218 14.4185 8.23885 14.1849 8.47246L9.61741 13.04C9.50464 13.1527 9.35158 13.2172 9.19047 13.2172Z" fill="#21B573"/>
</svg>
