<svg width="25" height="25" viewBox="0 0 25 25" fill="none" xmlns="http://www.w3.org/2000/svg">
<path d="M17.0312 10.36H19.0312C21.0312 10.36 22.0312 9.35999 22.0312 7.35999V5.35999C22.0312 3.35999 21.0312 2.35999 19.0312 2.35999H17.0312C15.0312 2.35999 14.0312 3.35999 14.0312 5.35999V7.35999C14.0312 9.35999 15.0312 10.36 17.0312 10.36Z" stroke="#141522" stroke-width="1.5" stroke-miterlimit="10" stroke-linecap="round" stroke-linejoin="round"/>
<path d="M5.03125 22.3599H7.03125C9.03125 22.3599 10.0312 21.3599 10.0312 19.3599V17.3599C10.0312 15.3599 9.03125 14.3599 7.03125 14.3599H5.03125C3.03125 14.3599 2.03125 15.3599 2.03125 17.3599V19.3599C2.03125 21.3599 3.03125 22.3599 5.03125 22.3599Z" stroke="#141522" stroke-width="1.5" stroke-miterlimit="10" stroke-linecap="round" stroke-linejoin="round"/>
<path d="M6.03125 10.36C8.24039 10.36 10.0312 8.56912 10.0312 6.35999C10.0312 4.15085 8.24039 2.35999 6.03125 2.35999C3.82211 2.35999 2.03125 4.15085 2.03125 6.35999C2.03125 8.56912 3.82211 10.36 6.03125 10.36Z" stroke="#141522" stroke-width="1.5" stroke-miterlimit="10" stroke-linecap="round" stroke-linejoin="round"/>
<path d="M18.0312 22.3599C20.2404 22.3599 22.0312 20.569 22.0312 18.3599C22.0312 16.1507 20.2404 14.3599 18.0312 14.3599C15.8221 14.3599 14.0312 16.1507 14.0312 18.3599C14.0312 20.569 15.8221 22.3599 18.0312 22.3599Z" stroke="#141522" stroke-width="1.5" stroke-miterlimit="10" stroke-linecap="round" stroke-linejoin="round"/>
</svg>
