<svg width="17" height="17" viewBox="0 0 17 17" fill="none" xmlns="http://www.w3.org/2000/svg">
<path d="M10.7925 8.83307C10.7925 10.1621 9.71848 11.2361 8.3894 11.2361C7.06033 11.2361 5.98633 10.1621 5.98633 8.83307C5.98633 7.50399 7.06033 6.42999 8.3894 6.42999C9.71848 6.42999 10.7925 7.50399 10.7925 8.83307Z" stroke="#141522" stroke-width="1.21" stroke-linecap="round" stroke-linejoin="round"/>
<path d="M8.39045 14.3843C10.76 14.3843 12.9684 12.9881 14.5055 10.5716C15.1097 9.62514 15.1097 8.03428 14.5055 7.08782C12.9684 4.67132 10.76 3.27512 8.39045 3.27512C6.02093 3.27512 3.81252 4.67132 2.27536 7.08782C1.67123 8.03428 1.67123 9.62514 2.27536 10.5716C3.81252 12.9881 6.02093 14.3843 8.39045 14.3843Z" stroke="#141522" stroke-width="1.21" stroke-linecap="round" stroke-linejoin="round"/>
</svg>
