<svg width="17" height="18" viewBox="0 0 17 18" fill="none" xmlns="http://www.w3.org/2000/svg">
<path d="M14.2669 4.95882C12.0315 4.73729 9.78267 4.62317 7.54054 4.62317C6.21137 4.62317 4.88221 4.6903 3.55304 4.82456L2.18359 4.95882" stroke="#FF461D" stroke-width="1.20833" stroke-linecap="round" stroke-linejoin="round"/>
<path d="M5.87109 4.28086L6.01878 3.40146C6.12619 2.76373 6.20674 2.28711 7.34123 2.28711H9.10003C10.2345 2.28711 10.3218 2.79058 10.4225 3.40817L10.5702 4.28086" stroke="#FF461D" stroke-width="1.20833" stroke-linecap="round" stroke-linejoin="round"/>
<path d="M12.8218 7.08008L12.3854 13.84C12.3116 14.894 12.2512 15.7129 10.3782 15.7129H6.06852C4.1956 15.7129 4.13519 14.894 4.06134 13.84L3.625 7.08008" stroke="#FF461D" stroke-width="1.20833" stroke-linecap="round" stroke-linejoin="round"/>
<path d="M7.10156 12.0209H9.33698" stroke="#FF461D" stroke-width="1.20833" stroke-linecap="round" stroke-linejoin="round"/>
<path d="M6.54688 9.33569H9.90336" stroke="#FF461D" stroke-width="1.20833" stroke-linecap="round" stroke-linejoin="round"/>
</svg>
