<svg width="18" height="19" viewBox="0 0 18 19" fill="none" xmlns="http://www.w3.org/2000/svg">
<path d="M16.5413 9.50008V13.1459C16.5413 15.3334 15.083 16.7917 12.8955 16.7917H5.60384C3.41634 16.7917 1.95801 15.3334 1.95801 13.1459V9.50008C1.95801 7.51675 3.15384 6.13133 5.01322 5.898C5.2028 5.86883 5.39967 5.85425 5.60384 5.85425H12.8955C13.0851 5.85425 13.2674 5.86153 13.4424 5.8907C15.3236 6.10945 16.5413 7.50216 16.5413 9.50008Z" stroke="#5541D7" stroke-width="1.3125" stroke-linecap="round" stroke-linejoin="round"/>
<path d="M13.4438 5.89054C13.2688 5.86138 13.0865 5.85409 12.8969 5.85409H5.60527C5.40111 5.85409 5.20423 5.86867 5.01465 5.89784C5.11673 5.69367 5.26257 5.50409 5.43757 5.32909L7.80736 2.952C8.80632 1.96034 10.4251 1.96034 11.424 2.952L12.7001 4.24264C13.1667 4.70202 13.4146 5.28533 13.4438 5.89054Z" stroke="#5541D7" stroke-width="1.3125" stroke-linecap="round" stroke-linejoin="round"/>
<path d="M16.5413 9.8645H14.3538C13.5518 9.8645 12.8955 10.5208 12.8955 11.3228C12.8955 12.1249 13.5518 12.7812 14.3538 12.7812H16.5413" stroke="#5541D7" stroke-width="1.3125" stroke-linecap="round" stroke-linejoin="round"/>
</svg>
