<svg width="20" height="21" viewBox="0 0 20 21" fill="none" xmlns="http://www.w3.org/2000/svg">
<path d="M4.47195 8.77563C3.58584 8.77563 2.86084 9.50063 2.86084 10.3867C2.86084 11.2729 3.58584 11.9979 4.47195 11.9979C5.35806 11.9979 6.08306 11.2729 6.08306 10.3867C6.08306 9.50063 5.35806 8.77563 4.47195 8.77563Z" fill="#141522"/>
<path d="M15.7498 8.77563C14.8637 8.77563 14.1387 9.50063 14.1387 10.3867C14.1387 11.2729 14.8637 11.9979 15.7498 11.9979C16.6359 11.9979 17.3609 11.2729 17.3609 10.3867C17.3609 9.50063 16.6359 8.77563 15.7498 8.77563Z" fill="#141522"/>
<path d="M10.1111 8.77563C9.225 8.77563 8.5 9.50063 8.5 10.3867C8.5 11.2729 9.225 11.9979 10.1111 11.9979C10.9972 11.9979 11.7222 11.2729 11.7222 10.3867C11.7222 9.50063 10.9972 8.77563 10.1111 8.77563Z" fill="#141522"/>
</svg>
