<svg width="17" height="18" viewBox="0 0 17 18" fill="none" xmlns="http://www.w3.org/2000/svg">
<path d="M10.0879 7.30157L6.69119 10.6983C6.25485 10.262 5.98633 9.66453 5.98633 8.99995C5.98633 7.67078 7.0604 6.59671 8.38957 6.59671C9.05415 6.59671 9.65161 6.86523 10.0879 7.30157Z" stroke="#141522" stroke-width="1.20833" stroke-linecap="round" stroke-linejoin="round"/>
<path d="M12.2959 4.81778C11.1211 3.93167 9.77853 3.44833 8.38895 3.44833C6.01927 3.44833 3.81071 4.84463 2.27344 7.2613C1.66927 8.20782 1.66927 9.7988 2.27344 10.7453C2.80376 11.5777 3.42135 12.296 4.09265 12.8733" stroke="#141522" stroke-width="1.20833" stroke-linecap="round" stroke-linejoin="round"/>
<path d="M5.98633 14.0548C6.75161 14.3771 7.56387 14.5516 8.38957 14.5516C10.7592 14.5516 12.9678 13.1553 14.5051 10.7386C15.1092 9.7921 15.1092 8.20112 14.5051 7.2546C14.2836 6.90552 14.0419 6.57659 13.7935 6.26779" stroke="#141522" stroke-width="1.20833" stroke-linecap="round" stroke-linejoin="round"/>
<path d="M10.7446 9.46985C10.5701 10.4164 9.79809 11.1884 8.85156 11.3629" stroke="#141522" stroke-width="1.20833" stroke-linecap="round" stroke-linejoin="round"/>
<path d="M6.69036 10.6983L1.67578 15.7129" stroke="#141522" stroke-width="1.20833" stroke-linecap="round" stroke-linejoin="round"/>
<path d="M15.1025 2.28699L10.0879 7.30157" stroke="#292D32" stroke-width="1.20833" stroke-linecap="round" stroke-linejoin="round"/>
</svg>
