<svg width="18" height="18" viewBox="0 0 18 18" fill="none" xmlns="http://www.w3.org/2000/svg">
<path d="M6.82324 10.6989C6.82324 11.6396 7.54512 12.3979 8.44199 12.3979H10.2722C11.0524 12.3979 11.6868 11.7343 11.6868 10.9177C11.6868 10.0281 11.3003 9.71455 10.7243 9.51038L7.78574 8.48955C7.2097 8.28538 6.82324 7.97184 6.82324 7.08226C6.82324 6.26559 7.45762 5.60205 8.23783 5.60205H10.068C10.9649 5.60205 11.6868 6.36038 11.6868 7.30101" stroke="#5541D7" stroke-width="1.3125" stroke-linecap="round" stroke-linejoin="round"/>
<path d="M9.25 4.625V13.375" stroke="#5541D7" stroke-width="1.3125" stroke-linecap="round" stroke-linejoin="round"/>
<path d="M9.24967 16.2916C13.2768 16.2916 16.5413 13.027 16.5413 8.99992C16.5413 4.97284 13.2768 1.70825 9.24967 1.70825C5.2226 1.70825 1.95801 4.97284 1.95801 8.99992C1.95801 13.027 5.2226 16.2916 9.24967 16.2916Z" stroke="#5541D7" stroke-width="1.3125" stroke-linecap="round" stroke-linejoin="round"/>
</svg>
