<svg width="20" height="21" viewBox="0 0 20 21" fill="none" xmlns="http://www.w3.org/2000/svg">
<path d="M13.3332 7.99168V17.4584C13.3332 18.6667 12.4665 19.175 11.4082 18.5917L8.13318 16.7667C7.78318 16.575 7.2165 16.575 6.8665 16.7667L3.5915 18.5917C2.53317 19.175 1.6665 18.6667 1.6665 17.4584V7.99168C1.6665 6.56668 2.83316 5.40002 4.25816 5.40002H10.7415C12.1665 5.40002 13.3332 6.56668 13.3332 7.99168Z" stroke="#141522" stroke-width="1.5" stroke-linecap="round" stroke-linejoin="round"/>
<path d="M18.3332 4.75834V14.225C18.3332 15.4334 17.4665 15.9417 16.4082 15.3583L13.3332 13.6417V7.99168C13.3332 6.56668 12.1665 5.40002 10.7415 5.40002H6.6665V4.75834C6.6665 3.33334 7.83316 2.16669 9.25816 2.16669H15.7415C17.1665 2.16669 18.3332 3.33334 18.3332 4.75834Z" stroke="#141522" stroke-width="1.5" stroke-linecap="round" stroke-linejoin="round"/>
<path d="M5.8335 10.5H9.16683" stroke="#141522" stroke-width="1.5" stroke-linecap="round" stroke-linejoin="round"/>
</svg>
