<svg width="25" height="25" viewBox="0 0 25 25" fill="none" xmlns="http://www.w3.org/2000/svg">
<path opacity="0.4" d="M22.2605 16.42L15.8605 4.9C15.0005 3.35 13.8105 2.5 12.5005 2.5C11.1905 2.5 10.0005 3.35 9.14047 4.9L2.74047 16.42C1.93047 17.89 1.84047 19.3 2.49047 20.41C3.14047 21.52 4.42047 22.13 6.10047 22.13H18.9005C20.5805 22.13 21.8605 21.52 22.5105 20.41C23.1605 19.3 23.0705 17.88 22.2605 16.42Z" fill="#FF0000"/>
<path d="M12.5 15.25C12.09 15.25 11.75 14.91 11.75 14.5V9.5C11.75 9.09 12.09 8.75 12.5 8.75C12.91 8.75 13.25 9.09 13.25 9.5V14.5C13.25 14.91 12.91 15.25 12.5 15.25Z" fill="#FF0000"/>
<path d="M12.5 18.5C12.44 18.5 12.37 18.49 12.3 18.48C12.24 18.47 12.18 18.45 12.12 18.42C12.06 18.4 12 18.37 11.94 18.33C11.89 18.29 11.84 18.25 11.79 18.21C11.61 18.02 11.5 17.76 11.5 17.5C11.5 17.24 11.61 16.98 11.79 16.79C11.84 16.75 11.89 16.71 11.94 16.67C12 16.63 12.06 16.6 12.12 16.58C12.18 16.55 12.24 16.53 12.3 16.52C12.43 16.49 12.57 16.49 12.69 16.52C12.76 16.53 12.82 16.55 12.88 16.58C12.94 16.6 13 16.63 13.06 16.67C13.11 16.71 13.16 16.75 13.21 16.79C13.39 16.98 13.5 17.24 13.5 17.5C13.5 17.76 13.39 18.02 13.21 18.21C13.16 18.25 13.11 18.29 13.06 18.33C13 18.37 12.94 18.4 12.88 18.42C12.82 18.45 12.76 18.47 12.69 18.48C12.63 18.49 12.56 18.5 12.5 18.5Z" fill="#FF0000"/>
</svg>
